{
    "asset" : {
        "generator" : "Khronos glTF Blender I/O v1.6.16",
        "version" : "2.0"
    },
    "scene" : 0,
    "scenes" : [
        {
            "name" : "Scene",
            "nodes" : [
                0
            ]
        }
    ],
    "nodes" : [
        {
            "mesh" : 0,
            "name" : "Cube",
            "scale" : [
                100,
                100,
                100
            ],
            "translation" : [
                0,
                1,
                0
            ]
        }
    ],
    "materials" : [
        {
            "doubleSided" : true,
            "name" : "Material",
            "pbrMetallicRoughness" : {
                "baseColorTexture" : {
                    "index" : 0
                },
                "metallicFactor" : 0,
                "roughnessFactor" : 0.5272727012634277
            }
        },
        {
            "doubleSided" : true,
            "name" : "Material.001",
            "pbrMetallicRoughness" : {
                "baseColorTexture" : {
                    "index" : 1
                },
                "metallicFactor" : 0,
                "roughnessFactor" : 0.5
            }
        },
        {
            "doubleSided" : true,
            "name" : "Material.002",
            "pbrMetallicRoughness" : {
                "baseColorTexture" : {
                    "index" : 2
                },
                "metallicFactor" : 0,
                "roughnessFactor" : 0
            }
        },
        {
            "doubleSided" : true,
            "name" : "Material.004",
            "pbrMetallicRoughness" : {
                "baseColorFactor" : [
                    1,
                    0,
                    0.009290523827075958,
                    1
                ],
                "metallicFactor" : 0,
                "roughnessFactor" : 0.5
            }
        },
        {
            "doubleSided" : true,
            "name" : "Material.005",
            "pbrMetallicRoughness" : {
                "baseColorFactor" : [
                    1,
                    0.974077045917511,
                    0,
                    1
                ],
                "metallicFactor" : 0,
                "roughnessFactor" : 0.5
            }
        }
    ],
    "meshes" : [
        {
            "name" : "Cube",
            "primitives" : [
                {
                    "attributes" : {
                        "POSITION" : 0,
                        "NORMAL" : 1,
                        "TEXCOORD_0" : 2
                    },
                    "indices" : 3,
                    "material" : 0
                },
                {
                    "attributes" : {
                        "POSITION" : 4,
                        "NORMAL" : 5,
                        "TEXCOORD_0" : 6
                    },
                    "indices" : 7,
                    "material" : 1
                },
                {
                    "attributes" : {
                        "POSITION" : 8,
                        "NORMAL" : 9,
                        "TEXCOORD_0" : 10
                    },
                    "indices" : 11,
                    "material" : 2
                },
                {
                    "attributes" : {
                        "POSITION" : 12,
                        "NORMAL" : 13,
                        "TEXCOORD_0" : 14
                    },
                    "indices" : 15,
                    "material" : 3
                },
                {
                    "attributes" : {
                        "POSITION" : 16,
                        "NORMAL" : 17,
                        "TEXCOORD_0" : 18
                    },
                    "indices" : 19,
                    "material" : 4
                }
            ]
        }
    ],
    "textures" : [
        {
            "sampler" : 0,
            "source" : 0
        },
        {
            "sampler" : 0,
            "source" : 1
        },
        {
            "sampler" : 0,
            "source" : 2
        }
    ],
    "images" : [
        {
            "bufferView" : 4,
            "mimeType" : "image/jpeg",
            "name" : "AsphaltCloseups0097_2_S"
        },
        {
            "bufferView" : 9,
            "mimeType" : "image/jpeg",
            "name" : "Biedronka_logo"
        },
        {
            "bufferView" : 14,
            "mimeType" : "image/jpeg",
            "name" : "Shops0010_S"
        }
    ],
    "accessors" : [
        {
            "bufferView" : 0,
            "componentType" : 5126,
            "count" : 36,
            "max" : [
                1.9561628103256226,
                0.3438205122947693,
                1.0000005960464478
            ],
            "min" : [
                -1.9561625719070435,
                -1,
                -1.0000003576278687
            ],
            "type" : "VEC3"
        },
        {
            "bufferView" : 1,
            "componentType" : 5126,
            "count" : 36,
            "type" : "VEC3"
        },
        {
            "bufferView" : 2,
            "componentType" : 5126,
            "count" : 36,
            "type" : "VEC2"
        },
        {
            "bufferView" : 3,
            "componentType" : 5123,
            "count" : 60,
            "type" : "SCALAR"
        },
        {
            "bufferView" : 5,
            "componentType" : 5126,
            "count" : 4,
            "max" : [
                1.0000004768371582,
                0.3438204824924469,
                -0.999999463558197
            ],
            "min" : [
                -0.9999999403953552,
                -0.29829171299934387,
                -1.000000238418579
            ],
            "type" : "VEC3"
        },
        {
            "bufferView" : 6,
            "componentType" : 5126,
            "count" : 4,
            "type" : "VEC3"
        },
        {
            "bufferView" : 7,
            "componentType" : 5126,
            "count" : 4,
            "type" : "VEC2"
        },
        {
            "bufferView" : 8,
            "componentType" : 5123,
            "count" : 6,
            "type" : "SCALAR"
        },
        {
            "bufferView" : 10,
            "componentType" : 5126,
            "count" : 12,
            "max" : [
                1.9561620950698853,
                -0.29829171299934387,
                -0.9999997615814209
            ],
            "min" : [
                -1.9561612606048584,
                -1,
                -1.0000003576278687
            ],
            "type" : "VEC3"
        },
        {
            "bufferView" : 11,
            "componentType" : 5126,
            "count" : 12,
            "type" : "VEC3"
        },
        {
            "bufferView" : 12,
            "componentType" : 5126,
            "count" : 12,
            "type" : "VEC2"
        },
        {
            "bufferView" : 13,
            "componentType" : 5123,
            "count" : 18,
            "type" : "SCALAR"
        },
        {
            "bufferView" : 15,
            "componentType" : 5126,
            "count" : 20,
            "max" : [
                1.9561620950698853,
                -0.29829171299934387,
                1.0000001192092896
            ],
            "min" : [
                -1.9561623334884644,
                -1,
                -1.0000003576278687
            ],
            "type" : "VEC3"
        },
        {
            "bufferView" : 16,
            "componentType" : 5126,
            "count" : 20,
            "type" : "VEC3"
        },
        {
            "bufferView" : 17,
            "componentType" : 5126,
            "count" : 20,
            "type" : "VEC2"
        },
        {
            "bufferView" : 18,
            "componentType" : 5123,
            "count" : 30,
            "type" : "SCALAR"
        },
        {
            "bufferView" : 19,
            "componentType" : 5126,
            "count" : 28,
            "max" : [
                1.9561628103256226,
                0.3438205122947693,
                1.0000005960464478
            ],
            "min" : [
                -1.9561625719070435,
                -0.29829171299934387,
                -1.000000238418579
            ],
            "type" : "VEC3"
        },
        {
            "bufferView" : 20,
            "componentType" : 5126,
            "count" : 28,
            "type" : "VEC3"
        },
        {
            "bufferView" : 21,
            "componentType" : 5126,
            "count" : 28,
            "type" : "VEC2"
        },
        {
            "bufferView" : 22,
            "componentType" : 5123,
            "count" : 42,
            "type" : "SCALAR"
        }
    ],
    "bufferViews" : [
        {
            "buffer" : 0,
            "byteLength" : 432,
            "byteOffset" : 0
        },
        {
            "buffer" : 0,
            "byteLength" : 432,
            "byteOffset" : 432
        },
        {
            "buffer" : 0,
            "byteLength" : 288,
            "byteOffset" : 864
        },
        {
            "buffer" : 0,
            "byteLength" : 120,
            "byteOffset" : 1152
        },
        {
            "buffer" : 0,
            "byteLength" : 111556,
            "byteOffset" : 1272
        },
        {
            "buffer" : 0,
            "byteLength" : 48,
            "byteOffset" : 112828
        },
        {
            "buffer" : 0,
            "byteLength" : 48,
            "byteOffset" : 112876
        },
        {
            "buffer" : 0,
            "byteLength" : 32,
            "byteOffset" : 112924
        },
        {
            "buffer" : 0,
            "byteLength" : 12,
            "byteOffset" : 112956
        },
        {
            "buffer" : 0,
            "byteLength" : 97513,
            "byteOffset" : 112968
        },
        {
            "buffer" : 0,
            "byteLength" : 144,
            "byteOffset" : 210484
        },
        {
            "buffer" : 0,
            "byteLength" : 144,
            "byteOffset" : 210628
        },
        {
            "buffer" : 0,
            "byteLength" : 96,
            "byteOffset" : 210772
        },
        {
            "buffer" : 0,
            "byteLength" : 36,
            "byteOffset" : 210868
        },
        {
            "buffer" : 0,
            "byteLength" : 290858,
            "byteOffset" : 210904
        },
        {
            "buffer" : 0,
            "byteLength" : 240,
            "byteOffset" : 501764
        },
        {
            "buffer" : 0,
            "byteLength" : 240,
            "byteOffset" : 502004
        },
        {
            "buffer" : 0,
            "byteLength" : 160,
            "byteOffset" : 502244
        },
        {
            "buffer" : 0,
            "byteLength" : 60,
            "byteOffset" : 502404
        },
        {
            "buffer" : 0,
            "byteLength" : 336,
            "byteOffset" : 502464
        },
        {
            "buffer" : 0,
            "byteLength" : 336,
            "byteOffset" : 502800
        },
        {
            "buffer" : 0,
            "byteLength" : 224,
            "byteOffset" : 503136
        },
        {
            "buffer" : 0,
            "byteLength" : 84,
            "byteOffset" : 503360
        }
    ],
    "samplers" : [
        {
            "magFilter" : 9729,
            "minFilter" : 9987
        }
    ],
    "buffers" : [
        {
            "byteLength" : 503444,
            "uri" : "data:application/octet-stream;base64,"
        }
    ]
}
